<?xml version="1.0" encoding="UTF-8"?>
<svg id="Layer_1" data-name="Layer 1" xmlns="http://www.w3.org/2000/svg" viewBox="0 0 144.26 130.48">
  <defs>
    <style>
      .cls-1 {
        fill: #535399;
        stroke-width: 0px;
      }
    </style>
  </defs>
  <path class="cls-1" d="M72.64.16c9.4-.17,19.48,1.48,29.27,5.04,7.97,2.9,14.52,7.82,19.53,14.5,7.22,9.63,14.12,19.55,18.55,30.86,3.91,9.99,5.61,20.29,3.06,30.96-1.74,7.29-5.66,13.33-10.48,18.97-12.47,14.56-29.13,21.54-47.02,26.35-10.24,2.75-20.68,4.03-31.28,3.55-17.51-.8-31.5-8.39-42.12-22.22C5.37,99.33,1.34,89.26.27,78.22c-1.01-10.35.84-20.47,5.39-29.79C14.74,29.87,26.83,13.97,46.07,4.66,54.52.58,59.11-.44,72.64.16Z"/>
</svg>